G04*
G04 #@! TF.GenerationSoftware,Altium Limited,Altium Designer,24.8.2 (39)*
G04*
G04 Layer_Physical_Order=3*
G04 Layer_Color=128*
%FSLAX44Y44*%
%MOMM*%
G71*
G04*
G04 #@! TF.SameCoordinates,182A3E41-00BD-4616-B03C-1C4207462090*
G04*
G04*
G04 #@! TF.FilePolarity,Negative*
G04*
G01*
G75*
%ADD90C,1.0160*%
%ADD91C,4.2160*%
%ADD92C,1.7160*%
%ADD93C,2.0360*%
%ADD94C,1.5160*%
%ADD95O,2.2160X1.6160*%
%ADD96C,1.2700*%
D90*
X0Y0D02*
X528320D01*
Y585000D01*
X0D02*
X528320D01*
X0Y0D02*
Y585000D01*
D91*
X33500Y551500D02*
D03*
Y33500D02*
D03*
X494820D02*
D03*
X495046Y552704D02*
D03*
D92*
X350012Y111252D02*
D03*
D93*
X129794Y405130D02*
D03*
Y379730D02*
D03*
X104394Y405130D02*
D03*
Y379730D02*
D03*
X129794Y354330D02*
D03*
Y328930D02*
D03*
X104394Y354330D02*
D03*
Y328930D02*
D03*
X129794Y303530D02*
D03*
Y278130D02*
D03*
X104394Y303530D02*
D03*
Y278130D02*
D03*
X129794Y252730D02*
D03*
Y227330D02*
D03*
X104394Y252730D02*
D03*
Y227330D02*
D03*
X129794Y201930D02*
D03*
Y176530D02*
D03*
X104394Y201930D02*
D03*
Y176530D02*
D03*
D94*
X434340Y140716D02*
D03*
X506222Y63246D02*
D03*
X488950Y83058D02*
D03*
X293370Y153670D02*
D03*
X389636Y164084D02*
D03*
X420116Y179832D02*
D03*
X366014Y176276D02*
D03*
X330708Y188722D02*
D03*
X479552Y197612D02*
D03*
X436626Y192024D02*
D03*
X443992Y233680D02*
D03*
X427736Y205994D02*
D03*
X358902Y264922D02*
D03*
X213770Y236600D02*
D03*
X312420Y203708D02*
D03*
X254762Y198374D02*
D03*
X386842Y278892D02*
D03*
X318008Y233172D02*
D03*
X167034Y238632D02*
D03*
X407670Y252984D02*
D03*
X379476Y227584D02*
D03*
X406400Y330200D02*
D03*
X15240Y451866D02*
D03*
X139954Y450342D02*
D03*
X274574Y478790D02*
D03*
X174244Y485140D02*
D03*
X207518Y475234D02*
D03*
X346202Y476758D02*
D03*
X262128Y517398D02*
D03*
X74422Y26670D02*
D03*
X99060D02*
D03*
X94996Y142494D02*
D03*
X204978Y81026D02*
D03*
X444246Y373634D02*
D03*
X70104Y81788D02*
D03*
X405638Y352806D02*
D03*
X439166Y400812D02*
D03*
D95*
X464566Y315114D02*
D03*
Y401514D02*
D03*
X502566Y315114D02*
D03*
Y401514D02*
D03*
D96*
X387684Y194390D02*
D03*
Y204390D02*
D03*
X397684D02*
D03*
Y194390D02*
D03*
M02*
