G04*
G04 #@! TF.GenerationSoftware,Altium Limited,Altium Designer,24.8.2 (39)*
G04*
G04 Layer_Color=8388736*
%FSLAX44Y44*%
%MOMM*%
G71*
G04*
G04 #@! TF.SameCoordinates,182A3E41-00BD-4616-B03C-1C4207462090*
G04*
G04*
G04 #@! TF.FilePolarity,Negative*
G04*
G01*
G75*
%ADD23R,1.4562X1.3046*%
%ADD27R,0.9500X1.4000*%
%ADD28R,1.2000X0.9000*%
%ADD30R,2.0000X1.4000*%
%ADD32R,0.6500X0.7000*%
%ADD33R,0.2425X0.9654*%
G04:AMPARAMS|DCode=34|XSize=0.9654mm|YSize=0.2425mm|CornerRadius=0.1212mm|HoleSize=0mm|Usage=FLASHONLY|Rotation=270.000|XOffset=0mm|YOffset=0mm|HoleType=Round|Shape=RoundedRectangle|*
%AMROUNDEDRECTD34*
21,1,0.9654,0.0000,0,0,270.0*
21,1,0.7229,0.2425,0,0,270.0*
1,1,0.2425,0.0000,-0.3614*
1,1,0.2425,0.0000,0.3614*
1,1,0.2425,0.0000,0.3614*
1,1,0.2425,0.0000,-0.3614*
%
%ADD34ROUNDEDRECTD34*%
%ADD35R,0.8000X0.9000*%
%ADD36R,1.4000X2.0000*%
%ADD37R,1.3046X1.4562*%
%ADD39R,1.2000X0.8000*%
%ADD40R,1.2000X0.7600*%
%ADD41R,1.2000X0.7000*%
%ADD42R,0.8121X0.7581*%
%ADD43R,0.7620X1.2700*%
%ADD44R,2.6700X2.5400*%
%ADD45R,0.6587X0.8121*%
%ADD48R,1.0000X0.6600*%
%ADD51R,0.8121X0.8087*%
%ADD52R,1.2500X0.6000*%
%ADD54R,1.5000X3.3000*%
%ADD55R,1.5000X1.2000*%
%ADD56R,1.5562X1.4546*%
%ADD57R,1.7780X0.7620*%
%ADD58R,0.7620X1.7780*%
%ADD59R,1.0032X1.0032*%
%ADD60R,1.0032X1.4532*%
G04:AMPARAMS|DCode=61|XSize=1.7254mm|YSize=1.7254mm|CornerRadius=0.1473mm|HoleSize=0mm|Usage=FLASHONLY|Rotation=0.000|XOffset=0mm|YOffset=0mm|HoleType=Round|Shape=RoundedRectangle|*
%AMROUNDEDRECTD61*
21,1,1.7254,1.4309,0,0,0.0*
21,1,1.4309,1.7254,0,0,0.0*
1,1,0.2945,0.7154,-0.7154*
1,1,0.2945,-0.7154,-0.7154*
1,1,0.2945,-0.7154,0.7154*
1,1,0.2945,0.7154,0.7154*
%
%ADD61ROUNDEDRECTD61*%
G04:AMPARAMS|DCode=62|XSize=0.4532mm|YSize=0.8032mm|CornerRadius=0.1516mm|HoleSize=0mm|Usage=FLASHONLY|Rotation=0.000|XOffset=0mm|YOffset=0mm|HoleType=Round|Shape=RoundedRectangle|*
%AMROUNDEDRECTD62*
21,1,0.4532,0.5000,0,0,0.0*
21,1,0.1500,0.8032,0,0,0.0*
1,1,0.3032,0.0750,-0.2500*
1,1,0.3032,-0.0750,-0.2500*
1,1,0.3032,-0.0750,0.2500*
1,1,0.3032,0.0750,0.2500*
%
%ADD62ROUNDEDRECTD62*%
G04:AMPARAMS|DCode=63|XSize=0.4532mm|YSize=0.8032mm|CornerRadius=0.1516mm|HoleSize=0mm|Usage=FLASHONLY|Rotation=90.000|XOffset=0mm|YOffset=0mm|HoleType=Round|Shape=RoundedRectangle|*
%AMROUNDEDRECTD63*
21,1,0.4532,0.5000,0,0,90.0*
21,1,0.1500,0.8032,0,0,90.0*
1,1,0.3032,0.2500,0.0750*
1,1,0.3032,0.2500,-0.0750*
1,1,0.3032,-0.2500,-0.0750*
1,1,0.3032,-0.2500,0.0750*
%
%ADD63ROUNDEDRECTD63*%
%ADD64R,1.5532X1.2032*%
%ADD65R,0.5000X0.6300*%
%ADD66C,1.6955*%
%ADD67R,1.0032X0.8032*%
%ADD68R,1.6532X1.4032*%
%ADD69R,1.4532X1.0032*%
%ADD70R,1.1532X1.0032*%
%ADD71R,1.6032X3.2032*%
G04:AMPARAMS|DCode=72|XSize=3.3532mm|YSize=2.0032mm|CornerRadius=0.1556mm|HoleSize=0mm|Usage=FLASHONLY|Rotation=90.000|XOffset=0mm|YOffset=0mm|HoleType=Round|Shape=RoundedRectangle|*
%AMROUNDEDRECTD72*
21,1,3.3532,1.6920,0,0,90.0*
21,1,3.0420,2.0032,0,0,90.0*
1,1,0.3112,0.8460,1.5210*
1,1,0.3112,0.8460,-1.5210*
1,1,0.3112,-0.8460,-1.5210*
1,1,0.3112,-0.8460,1.5210*
%
%ADD72ROUNDEDRECTD72*%
G04:AMPARAMS|DCode=73|XSize=0.8032mm|YSize=2.0032mm|CornerRadius=0.1526mm|HoleSize=0mm|Usage=FLASHONLY|Rotation=90.000|XOffset=0mm|YOffset=0mm|HoleType=Round|Shape=RoundedRectangle|*
%AMROUNDEDRECTD73*
21,1,0.8032,1.6980,0,0,90.0*
21,1,0.4980,2.0032,0,0,90.0*
1,1,0.3052,0.8490,0.2490*
1,1,0.3052,0.8490,-0.2490*
1,1,0.3052,-0.8490,-0.2490*
1,1,0.3052,-0.8490,0.2490*
%
%ADD73ROUNDEDRECTD73*%
%ADD74R,1.0032X1.2032*%
%ADD75C,0.2032*%
%ADD76R,1.4032X1.4032*%
%ADD77C,1.4032*%
G04:AMPARAMS|DCode=78|XSize=1.1mm|YSize=1.7mm|CornerRadius=0.55mm|HoleSize=0mm|Usage=FLASHONLY|Rotation=90.000|XOffset=0mm|YOffset=0mm|HoleType=Round|Shape=RoundedRectangle|*
%AMROUNDEDRECTD78*
21,1,1.1000,0.6000,0,0,90.0*
21,1,0.0000,1.7000,0,0,90.0*
1,1,1.1000,0.3000,0.0000*
1,1,1.1000,0.3000,0.0000*
1,1,1.1000,-0.3000,0.0000*
1,1,1.1000,-0.3000,0.0000*
%
%ADD78ROUNDEDRECTD78*%
%ADD79C,1.8200*%
%ADD80C,0.6096*%
G36*
X202906Y260464D02*
X178406D01*
Y283564D01*
X183406D01*
Y279464D01*
X184906D01*
Y283564D01*
X189906D01*
Y279464D01*
X191406D01*
Y283564D01*
X196406D01*
Y279464D01*
X197906D01*
Y283564D01*
X202906D01*
Y260464D01*
D02*
G37*
G36*
X244562Y260718D02*
X220062D01*
Y283818D01*
X225062D01*
Y279718D01*
X226562D01*
Y283818D01*
X231562D01*
Y279718D01*
X233062D01*
Y283818D01*
X238062D01*
Y279718D01*
X239562D01*
Y283818D01*
X244562D01*
Y260718D01*
D02*
G37*
D23*
X434594Y104534D02*
D03*
Y120650D02*
D03*
D27*
X407458Y233680D02*
D03*
X425958D02*
D03*
D28*
X358902Y249682D02*
D03*
Y228682D02*
D03*
D30*
X278384Y239522D02*
D03*
Y275522D02*
D03*
D32*
X330702Y207010D02*
D03*
X346202D02*
D03*
D33*
X283718Y215525D02*
D03*
D34*
X278718D02*
D03*
X273718D02*
D03*
Y203454D02*
D03*
X278718D02*
D03*
X283718D02*
D03*
D35*
X291084Y181610D02*
D03*
X306084D02*
D03*
D36*
X200122Y215010D02*
D03*
X236122D02*
D03*
D37*
X313690Y153670D02*
D03*
X329806D02*
D03*
X33668Y451358D02*
D03*
X49784D02*
D03*
X325882Y476504D02*
D03*
X309766D02*
D03*
D39*
X464566Y330814D02*
D03*
Y385814D02*
D03*
D40*
Y343114D02*
D03*
Y373514D02*
D03*
D41*
Y353314D02*
D03*
Y363314D02*
D03*
D42*
X174244Y500126D02*
D03*
Y512666D02*
D03*
X73914Y42832D02*
D03*
Y55372D02*
D03*
D43*
X264160Y549402D02*
D03*
D44*
X240650D02*
D03*
D45*
X259588Y478536D02*
D03*
X246054D02*
D03*
D48*
X309880Y517398D02*
D03*
Y498398D02*
D03*
X283580D02*
D03*
Y507898D02*
D03*
Y517398D02*
D03*
D51*
X99314Y43180D02*
D03*
Y55214D02*
D03*
D52*
X95250Y124206D02*
D03*
Y106206D02*
D03*
D54*
X75446Y489966D02*
D03*
D55*
X139446Y512966D02*
D03*
Y489966D02*
D03*
Y466966D02*
D03*
D56*
X207518Y493802D02*
D03*
Y512318D02*
D03*
D57*
X392684Y213360D02*
D03*
Y185420D02*
D03*
D58*
X406654Y199390D02*
D03*
X378714D02*
D03*
D59*
X489460Y129540D02*
D03*
X505460D02*
D03*
X489714Y104902D02*
D03*
X505714D02*
D03*
D60*
X457202D02*
D03*
X473202D02*
D03*
X457200Y129540D02*
D03*
X473200D02*
D03*
D61*
X392684Y199390D02*
D03*
D62*
X385184Y213390D02*
D03*
X390184D02*
D03*
X395184D02*
D03*
X400184D02*
D03*
Y185390D02*
D03*
X395184D02*
D03*
X390184D02*
D03*
X385184D02*
D03*
D63*
X406684Y206890D02*
D03*
Y201890D02*
D03*
Y196890D02*
D03*
Y191890D02*
D03*
X378684D02*
D03*
Y196890D02*
D03*
Y201890D02*
D03*
Y206890D02*
D03*
D64*
X387096Y244348D02*
D03*
Y262348D02*
D03*
D65*
X180906Y251714D02*
D03*
X187406D02*
D03*
X193906D02*
D03*
X200406D02*
D03*
X222562Y251968D02*
D03*
X229062D02*
D03*
X235562D02*
D03*
X242062D02*
D03*
D66*
X188151Y270209D02*
D03*
X229807Y270463D02*
D03*
D67*
X301752Y233218D02*
D03*
Y220218D02*
D03*
D68*
X457454Y218026D02*
D03*
Y198026D02*
D03*
D69*
X265684Y166118D02*
D03*
Y182118D02*
D03*
D70*
X246126Y498602D02*
D03*
Y512102D02*
D03*
D71*
X307594Y549148D02*
D03*
X285594D02*
D03*
D72*
X181102Y80518D02*
D03*
D73*
X122602Y55118D02*
D03*
Y67818D02*
D03*
Y80518D02*
D03*
Y93218D02*
D03*
Y105918D02*
D03*
D74*
X437896Y353060D02*
D03*
X422896D02*
D03*
D75*
X33500Y551500D02*
D03*
Y33500D02*
D03*
X494820D02*
D03*
X495046Y552704D02*
D03*
D76*
X330012Y111252D02*
D03*
D77*
X350012D02*
D03*
X434340Y140716D02*
D03*
X506222Y63246D02*
D03*
X488950Y83058D02*
D03*
X293370Y153670D02*
D03*
X389636Y164084D02*
D03*
X420116Y179832D02*
D03*
X366014Y176276D02*
D03*
X330708Y188722D02*
D03*
X479552Y197612D02*
D03*
X436626Y192024D02*
D03*
X443992Y233680D02*
D03*
X427736Y205994D02*
D03*
X358902Y264922D02*
D03*
X213770Y236600D02*
D03*
X312420Y203708D02*
D03*
X254762Y198374D02*
D03*
X386842Y278892D02*
D03*
X318008Y233172D02*
D03*
X167034Y238632D02*
D03*
X407670Y252984D02*
D03*
X379476Y227584D02*
D03*
X406400Y330200D02*
D03*
X15240Y451866D02*
D03*
X139954Y450342D02*
D03*
X274574Y478790D02*
D03*
X174244Y485140D02*
D03*
X207518Y475234D02*
D03*
X309626Y448310D02*
D03*
X346202Y476758D02*
D03*
X262128Y517398D02*
D03*
X74422Y26670D02*
D03*
X99060D02*
D03*
X94996Y142494D02*
D03*
X204978Y81026D02*
D03*
X444246Y373634D02*
D03*
X70104Y81788D02*
D03*
X405638Y352806D02*
D03*
X439166Y400812D02*
D03*
X70358Y105918D02*
D03*
D78*
X464566Y315114D02*
D03*
Y401514D02*
D03*
X502566Y315114D02*
D03*
Y401514D02*
D03*
D79*
X129794Y405130D02*
D03*
Y379730D02*
D03*
X104394Y405130D02*
D03*
Y379730D02*
D03*
X129794Y354330D02*
D03*
Y328930D02*
D03*
X104394Y354330D02*
D03*
Y328930D02*
D03*
X129794Y303530D02*
D03*
Y278130D02*
D03*
X104394Y303530D02*
D03*
Y278130D02*
D03*
X129794Y252730D02*
D03*
Y227330D02*
D03*
X104394Y252730D02*
D03*
Y227330D02*
D03*
X129794Y201930D02*
D03*
Y176530D02*
D03*
X104394Y201930D02*
D03*
Y176530D02*
D03*
D80*
X387684Y194390D02*
D03*
Y204390D02*
D03*
X397684D02*
D03*
Y194390D02*
D03*
M02*
