M48
;Layer_Color=9474304
;FILE_FORMAT=4:4
METRIC,LZ
;TYPE=PLATED
T01F00S00C0.2540
T02F00S00C0.5000
T04F00S00C0.7000
T05F00S00C1.0200
;TYPE=NON_PLATED
T06F00S00C3.2000
%
T01
X00387684Y0019439
Y0020439
X00397684
Y0019439
T02
X00074422Y0002667
X0009906
X00070104Y00081788
X00070358Y00105918
X00094996Y00142494
X00204978Y00081026
X0043434Y00140716
X0048895Y00083058
X00506222Y00063246
X00479552Y00197612
X00436626Y00192024
X00427736Y00205994
X00420116Y00179832
X00389636Y00164084
X00366014Y00176276
X00330708Y00188722
X0031242Y00203708
X00318008Y00233172
X00379476Y00227584
X0040767Y00252984
X00386842Y00278892
X00358902Y00264922
X004064Y003302
X00405638Y00352806
X00444246Y00373634
X00439166Y00400812
X00346202Y00476758
X00309626Y0044831
X00274574Y0047879
X00262128Y00517398
X00207518Y00475234
X00174244Y0048514
X00139954Y00450342
X00167034Y00238632
X0021377Y002366
X00254762Y00198374
X0029337Y0015367
X00443992Y0023368
X0001524Y00451866
T04
X00330012Y00111252
X00350012
T05
X00104394Y0017653
X00129794
Y0020193
Y0022733
Y0025273
Y0027813
Y0030353
Y0032893
Y0035433
Y0037973
Y0040513
X00104394
Y0037973
Y0035433
Y0032893
Y0030353
Y0027813
Y0025273
Y0022733
Y0020193
T06
X000335Y000335
X0049482
X000335Y005515
X00495046Y00552704
M30
