G04*
G04 #@! TF.GenerationSoftware,Altium Limited,Altium Designer,24.8.2 (39)*
G04*
G04 Layer_Physical_Order=2*
G04 Layer_Color=32768*
%FSLAX44Y44*%
%MOMM*%
G71*
G04*
G04 #@! TF.SameCoordinates,182A3E41-00BD-4616-B03C-1C4207462090*
G04*
G04*
G04 #@! TF.FilePolarity,Negative*
G04*
G01*
G75*
%ADD90C,1.0160*%
%ADD91C,4.2160*%
%ADD92C,1.7160*%
%ADD93C,2.0360*%
%ADD94C,1.5160*%
D90*
X0Y0D02*
X528320D01*
Y585000D01*
X0D02*
X528320D01*
X0Y0D02*
Y585000D01*
D91*
X33500Y551500D02*
D03*
Y33500D02*
D03*
X494820D02*
D03*
X495046Y552704D02*
D03*
D92*
X330012Y111252D02*
D03*
D93*
X129794Y379730D02*
D03*
X104394D02*
D03*
X129794Y354330D02*
D03*
X104394D02*
D03*
Y328930D02*
D03*
X129794Y303530D02*
D03*
Y278130D02*
D03*
X104394Y303530D02*
D03*
Y278130D02*
D03*
X129794Y227330D02*
D03*
X104394Y252730D02*
D03*
Y227330D02*
D03*
X129794Y201930D02*
D03*
X104394D02*
D03*
Y176530D02*
D03*
D94*
X506222Y63246D02*
D03*
X488950Y83058D02*
D03*
X436626Y192024D02*
D03*
X427736Y205994D02*
D03*
X407670Y252984D02*
D03*
X309626Y448310D02*
D03*
X444246Y373634D02*
D03*
X70358Y105918D02*
D03*
M02*
