G04*
G04 #@! TF.GenerationSoftware,Altium Limited,Altium Designer,24.8.2 (39)*
G04*
G04 Layer_Color=8421504*
%FSLAX44Y44*%
%MOMM*%
G71*
G04*
G04 #@! TF.SameCoordinates,182A3E41-00BD-4616-B03C-1C4207462090*
G04*
G04*
G04 #@! TF.FilePolarity,Positive*
G04*
G01*
G75*
G04:AMPARAMS|DCode=18|XSize=1.55mm|YSize=1.55mm|CornerRadius=0.0465mm|HoleSize=0mm|Usage=FLASHONLY|Rotation=0.000|XOffset=0mm|YOffset=0mm|HoleType=Round|Shape=RoundedRectangle|*
%AMROUNDEDRECTD18*
21,1,1.5500,1.4570,0,0,0.0*
21,1,1.4570,1.5500,0,0,0.0*
1,1,0.0930,0.7285,-0.7285*
1,1,0.0930,-0.7285,-0.7285*
1,1,0.0930,-0.7285,0.7285*
1,1,0.0930,0.7285,0.7285*
%
%ADD18ROUNDEDRECTD18*%
%ADD19R,0.3400X0.4500*%
%ADD20R,1.0200X1.4450*%
%ADD21R,0.8000X0.8000*%
%ADD22R,0.8000X1.2500*%
%ADD23R,1.4562X1.3046*%
G04:AMPARAMS|DCode=24|XSize=0.25mm|YSize=0.6mm|CornerRadius=0.05mm|HoleSize=0mm|Usage=FLASHONLY|Rotation=0.000|XOffset=0mm|YOffset=0mm|HoleType=Round|Shape=RoundedRectangle|*
%AMROUNDEDRECTD24*
21,1,0.2500,0.5000,0,0,0.0*
21,1,0.1500,0.6000,0,0,0.0*
1,1,0.1000,0.0750,-0.2500*
1,1,0.1000,-0.0750,-0.2500*
1,1,0.1000,-0.0750,0.2500*
1,1,0.1000,0.0750,0.2500*
%
%ADD24ROUNDEDRECTD24*%
G04:AMPARAMS|DCode=25|XSize=0.25mm|YSize=0.6mm|CornerRadius=0.05mm|HoleSize=0mm|Usage=FLASHONLY|Rotation=90.000|XOffset=0mm|YOffset=0mm|HoleType=Round|Shape=RoundedRectangle|*
%AMROUNDEDRECTD25*
21,1,0.2500,0.5000,0,0,90.0*
21,1,0.1500,0.6000,0,0,90.0*
1,1,0.1000,0.2500,0.0750*
1,1,0.1000,0.2500,-0.0750*
1,1,0.1000,-0.2500,-0.0750*
1,1,0.1000,-0.2500,0.0750*
%
%ADD25ROUNDEDRECTD25*%
%ADD26R,1.3500X1.0000*%
%ADD27R,0.9500X1.4000*%
%ADD28R,1.2000X0.9000*%
%ADD29R,0.8000X0.6000*%
%ADD30R,2.0000X1.4000*%
%ADD31R,1.4500X1.2000*%
%ADD32R,0.6500X0.7000*%
%ADD33R,0.2425X0.9654*%
G04:AMPARAMS|DCode=34|XSize=0.9654mm|YSize=0.2425mm|CornerRadius=0.1212mm|HoleSize=0mm|Usage=FLASHONLY|Rotation=270.000|XOffset=0mm|YOffset=0mm|HoleType=Round|Shape=RoundedRectangle|*
%AMROUNDEDRECTD34*
21,1,0.9654,0.0000,0,0,270.0*
21,1,0.7229,0.2425,0,0,270.0*
1,1,0.2425,0.0000,-0.3614*
1,1,0.2425,0.0000,0.3614*
1,1,0.2425,0.0000,0.3614*
1,1,0.2425,0.0000,-0.3614*
%
%ADD34ROUNDEDRECTD34*%
%ADD35R,0.8000X0.9000*%
%ADD36R,1.4000X2.0000*%
%ADD37R,1.3046X1.4562*%
%ADD38R,1.2500X0.8000*%
%ADD39R,1.2000X0.8000*%
%ADD40R,1.2000X0.7600*%
%ADD41R,1.2000X0.7000*%
%ADD42R,0.8121X0.7581*%
%ADD43R,0.7620X1.2700*%
%ADD44R,2.6700X2.5400*%
%ADD45R,0.6587X0.8121*%
%ADD46R,0.9500X0.8000*%
%ADD47R,1.4000X3.0000*%
%ADD48R,1.0000X0.6600*%
G04:AMPARAMS|DCode=49|XSize=3.15mm|YSize=1.8mm|CornerRadius=0.054mm|HoleSize=0mm|Usage=FLASHONLY|Rotation=90.000|XOffset=0mm|YOffset=0mm|HoleType=Round|Shape=RoundedRectangle|*
%AMROUNDEDRECTD49*
21,1,3.1500,1.6920,0,0,90.0*
21,1,3.0420,1.8000,0,0,90.0*
1,1,0.1080,0.8460,1.5210*
1,1,0.1080,0.8460,-1.5210*
1,1,0.1080,-0.8460,-1.5210*
1,1,0.1080,-0.8460,1.5210*
%
%ADD49ROUNDEDRECTD49*%
G04:AMPARAMS|DCode=50|XSize=0.6mm|YSize=1.8mm|CornerRadius=0.051mm|HoleSize=0mm|Usage=FLASHONLY|Rotation=90.000|XOffset=0mm|YOffset=0mm|HoleType=Round|Shape=RoundedRectangle|*
%AMROUNDEDRECTD50*
21,1,0.6000,1.6980,0,0,90.0*
21,1,0.4980,1.8000,0,0,90.0*
1,1,0.1020,0.8490,0.2490*
1,1,0.1020,0.8490,-0.2490*
1,1,0.1020,-0.8490,-0.2490*
1,1,0.1020,-0.8490,0.2490*
%
%ADD50ROUNDEDRECTD50*%
%ADD51R,0.8121X0.8087*%
%ADD52R,1.2500X0.6000*%
%ADD53R,0.8000X1.0000*%
%ADD54R,1.5000X3.3000*%
%ADD55R,1.5000X1.2000*%
%ADD56R,1.5562X1.4546*%
D18*
X392684Y199390D02*
D03*
D19*
X180906Y251714D02*
D03*
X187406D02*
D03*
X193906D02*
D03*
X200406D02*
D03*
X180906Y280414D02*
D03*
X187406D02*
D03*
X193906D02*
D03*
X200406D02*
D03*
X222562Y251968D02*
D03*
X229062D02*
D03*
X235562D02*
D03*
X242062D02*
D03*
X222562Y280668D02*
D03*
X229062D02*
D03*
X235562D02*
D03*
X242062D02*
D03*
D20*
X184306Y268689D02*
D03*
X197006D02*
D03*
X225962Y268943D02*
D03*
X238662D02*
D03*
D21*
X489460Y129540D02*
D03*
X505460D02*
D03*
X489714Y104902D02*
D03*
X505714D02*
D03*
D22*
X457202D02*
D03*
X473202D02*
D03*
X457200Y129540D02*
D03*
X473200D02*
D03*
D23*
X434594Y104534D02*
D03*
Y120650D02*
D03*
D24*
X385184Y213390D02*
D03*
X390184D02*
D03*
X395184D02*
D03*
X400184D02*
D03*
Y185390D02*
D03*
X395184D02*
D03*
X390184D02*
D03*
X385184D02*
D03*
D25*
X406684Y206890D02*
D03*
Y201890D02*
D03*
Y196890D02*
D03*
Y191890D02*
D03*
X378684D02*
D03*
Y196890D02*
D03*
Y201890D02*
D03*
Y206890D02*
D03*
D26*
X387096Y244348D02*
D03*
Y262348D02*
D03*
D27*
X407458Y233680D02*
D03*
X425958D02*
D03*
D28*
X358902Y249682D02*
D03*
Y228682D02*
D03*
D29*
X301752Y233218D02*
D03*
Y220218D02*
D03*
D30*
X278384Y239522D02*
D03*
Y275522D02*
D03*
D31*
X457454Y218026D02*
D03*
Y198026D02*
D03*
D32*
X330702Y207010D02*
D03*
X346202D02*
D03*
D33*
X283718Y215525D02*
D03*
D34*
X278718D02*
D03*
X273718D02*
D03*
Y203454D02*
D03*
X278718D02*
D03*
X283718D02*
D03*
D35*
X291084Y181610D02*
D03*
X306084D02*
D03*
D36*
X200122Y215010D02*
D03*
X236122D02*
D03*
D37*
X313690Y153670D02*
D03*
X329806D02*
D03*
X33668Y451358D02*
D03*
X49784D02*
D03*
X325882Y476504D02*
D03*
X309766D02*
D03*
D38*
X265684Y166118D02*
D03*
Y182118D02*
D03*
D39*
X464566Y330814D02*
D03*
Y385814D02*
D03*
D40*
Y343114D02*
D03*
Y373514D02*
D03*
D41*
Y353314D02*
D03*
Y363314D02*
D03*
D42*
X174244Y500126D02*
D03*
Y512666D02*
D03*
X73914Y42832D02*
D03*
Y55372D02*
D03*
D43*
X264160Y549402D02*
D03*
D44*
X240650D02*
D03*
D45*
X259588Y478536D02*
D03*
X246054D02*
D03*
D46*
X246126Y498602D02*
D03*
Y512102D02*
D03*
D47*
X307594Y549148D02*
D03*
X285594D02*
D03*
D48*
X309880Y517398D02*
D03*
Y498398D02*
D03*
X283580D02*
D03*
Y507898D02*
D03*
Y517398D02*
D03*
D49*
X181102Y80518D02*
D03*
D50*
X122602Y55118D02*
D03*
Y67818D02*
D03*
Y80518D02*
D03*
Y93218D02*
D03*
Y105918D02*
D03*
D51*
X99314Y43180D02*
D03*
Y55214D02*
D03*
D52*
X95250Y124206D02*
D03*
Y106206D02*
D03*
D53*
X437896Y353060D02*
D03*
X422896D02*
D03*
D54*
X75446Y489966D02*
D03*
D55*
X139446Y512966D02*
D03*
Y489966D02*
D03*
Y466966D02*
D03*
D56*
X207518Y493802D02*
D03*
Y512318D02*
D03*
M02*
